<svg data-name="Layer 2" xmlns="http://www.w3.org/2000/svg" viewBox="0 0 108.89 108.89"><path d="M58.34 0h-7.78v34.44L37.66 2.51l-7.21 2.91 13.24 32.76L18.7 13.2l-5.5 5.5 23.95 23.95L6.11 29.08 3 36.21l32.83 14.35H0v7.78h35.83L3 72.68l3.11 7.13 31.03-13.56L13.19 90.2l5.5 5.5 24.98-24.98-13.24 32.76 7.21 2.91 12.9-31.93v34.44h7.78V74.46l12.9 31.93 7.21-2.91L65.2 70.72 90.18 95.7l5.5-5.5-23.95-23.95 31.03 13.56 3.11-7.13-32.83-14.35h35.83v-7.78H73.04l32.83-14.35-3.11-7.13-31.03 13.56 23.95-23.95-5.5-5.5L65.2 38.16 78.43 5.4l-7.21-2.91-12.9 31.93V0Z" style="fill:#000;fill-rule:evenodd;stroke-width:0" data-name="Layer 1"/></svg>